Laid to Rest 2009 DVDRip BigPerm LKRG

encoded by bigperm  
http://img441.imageshack.us/img441/5863/547pdk.gif


A terrifying story of a young girl who wakes up in a casket with a traumatic head injury and no memory of her identity. She quickly realizes she was abducted by a Deranged Serial Murderer and in an isolated rural town she must survive the night and outsmart the technologically inclined killer who is hellbent on finishing what he started.


Bobbi Sue Luther...............The Girl
Kevin Gage.....................Tucker
Lena Headey....................Cindy
Sean Whalen....................Steven
Richard Lynch..................Mr. Jones
Johnathon Schaech..............Johnny
Thomas Dekker..................Tommy
Nick Principe..................Chrome Skull
Jana Kramer....................Jamie
Lucas Till.....................Young Store Clerk
Anthony Fitzgerald.............Anthony
Seri DeYoung...................Bound Girl



General:

Format : MPEG-4
Format profile : Base Media / Version 2
Codec ID : mp42
File size : 591 MiB
Duration : 1h 30mn
Overall bit rate : 919 Kbps

Video:

ID : 1
Format : AVC
Format/Info : Advanced Video Codec
Format profile : Main@L3.0
Format settings, CABAC : Yes
Format settings, ReFrames : 2 frames
Codec ID : avc1
Codec ID/Info : Advanced Video Coding
Duration : 1h 30mn
Bit rate mode : Variable
Bit rate : 753 Kbps
Width : 720 pixels
Height : 480 pixels
Display aspect ratio : 16:9
Frame rate mode : Variable
Frame rate : 23.976 fps
Minimum frame rate : 11.989 fps
Maximum frame rate : 29.970 fps
Standard : NTSC
Resolution : 8 bits
Colorimetry : 4:2:0
Scan type : Progressive
Bits/(Pixel*Frame) : 0.091
Stream size : 485 MiB (82%)
Writing library : x264 core 79

Audio:

ID : 2
Format : AAC
Format/Info : Advanced Audio Codec
Format version : Version 4
Format profile : LC
Format settings, SBR : No
Codec ID : 40
Duration : 1h 29mn
Bit rate mode : Variable
Bit rate : 160 Kbps
Maximum bit rate : 246 Kbps
Channel(s) : 2 channels
Channel positions : Front: L R
Sampling rate : 48.0 KHz
Stream size : 103 MiB (17%)
Language : English
